<svg xmlns="http://www.w3.org/2000/svg" width="980" height="620" viewBox="0 0 980 620" role="img" aria-labelledby="title">
  <title id="title">Digital coverage categories</title>
  <rect width="980" height="620" rx="30" fill="#0e1421"/>
  <g font-family="Inter,Arial,sans-serif">
    <text x="64" y="78" font-size="28" font-weight="700" fill="#fff">Digital Coverage</text>
    <text x="64" y="112" font-size="16" fill="#9aa7bb">Monitor public online environments without implying platform partnerships.</text>
    <g fill="#141e31" stroke="#2a3750">
      <rect x="64" y="162" width="250" height="88" rx="18"/><rect x="365" y="162" width="250" height="88" rx="18"/><rect x="666" y="162" width="250" height="88" rx="18"/>
      <rect x="64" y="286" width="250" height="88" rx="18"/><rect x="365" y="286" width="250" height="88" rx="18"/><rect x="666" y="286" width="250" height="88" rx="18"/>
      <rect x="64" y="410" width="250" height="88" rx="18"/><rect x="365" y="410" width="250" height="88" rx="18"/><rect x="666" y="410" width="250" height="88" rx="18"/>
    </g>
    <g fill="#b9fb6a">
      <circle cx="90" cy="206" r="18"/><rect x="373" y="188" width="36" height="36" rx="8"/><circle cx="692" cy="206" r="18"/>
      <rect x="72" y="312" width="36" height="28" rx="5"/><rect x="373" y="314" width="36" height="26" rx="5"/><rect x="678" y="306" width="28" height="42" rx="7"/><rect x="378" y="416" width="26" height="42" rx="7"/>
      <path d="M76 458l35-17v34z"/><circle cx="682" cy="448" r="9"/><circle cx="702" cy="448" r="9"/><circle cx="692" cy="466" r="9"/>
    </g>
    <g stroke="#090d16" stroke-width="5" stroke-linecap="round" stroke-linejoin="round" fill="none">
      <path d="M82 206h16M90 198v16"/><path d="M382 202h18M382 212h12"/><circle cx="692" cy="202" r="9"/><path d="M699 213l10 10"/>
      <path d="M76 322h28"/><path d="M388 322l12 7-12 7z" fill="#090d16" stroke="none"/><path d="M686 314h12M692 340v0" /><circle cx="692" cy="340" r="2" fill="#090d16" stroke="none"/><circle cx="391" cy="452" r="2" fill="#090d16" stroke="none"/>
      <path d="M86 457h11"/><path d="M682 448h20M692 448v18"/>
    </g>
    <g font-size="17" font-weight="700" fill="#fff">
      <text x="124" y="212">Social Media</text><text x="423" y="212">Marketplaces</text><text x="724" y="212">Search Engines</text>
      <text x="124" y="336">Websites</text><text x="423" y="336">Video Platforms</text><text x="724" y="336">Mobile Apps</text>
      <text x="124" y="460">Advertising</text><text x="423" y="460">Messaging</text><text x="724" y="460">Communities</text>
    </g>
  </g>
</svg>
